<svg xmlns="http://www.w3.org/2000/svg" xmlns:svg="http://www.w3.org/2000/svg" width="959" height="593"><title>USA</title><g fill="#d3d3d3"><path d="m755.4 445.51l2.27 7.32 3.73 9.74 5.33 9.38 3.72 6.3 4.85 5.5 4.04 3.72 1.62 2.91 -1.13 1.29 -0.81 1.29 2.91 7.44 2.91 2.91 2.59 5.33 3.56 5.82 4.53 8.24 1.29 7.6 0.48 11.96 0.65 1.78 -0.32 3.39 -2.42 1.29 0.32 1.94 -0.65 1.94 0.32 2.42 0.48 1.94 -2.75 3.23 -3.07 1.45 -3.88 0.16 -1.45 1.62 -2.42 0.97 -1.29-0.48 -1.13-0.97 -0.32-2.91 -0.81-3.39 -3.39-5.17 -3.56-2.26 -3.88-0.32 -0.81 1.29 -3.07-4.36 -0.65-3.56 -2.59-4.04 -1.78-1.13 -1.62 2.1 -1.78-0.32 -2.1-5.01 -2.91-3.88 -2.91-5.33 -2.59-3.07 -3.56-3.72 2.1-2.42 3.23-5.5 -0.16-1.62 -4.53-0.97 -1.62 0.65 0.32 0.65 2.59 0.97 -1.45 4.53 -0.81 0.48 -1.78-4.04 -1.29-4.85 -0.32-2.75 1.45-4.69 0-9.54 -3.07-3.72 -1.29-3.07 -5.17-1.29 -1.94-0.65 -1.62-2.59 -3.39-1.62 -1.13-3.39 -2.75-0.97 -2.42-3.72 -4.2-1.45 -2.91-1.45 -2.59 0 -4.04 0.81 -0.16 1.94 0.81 0.97 -0.48 1.13 -3.07-0.16 -3.72 3.56 -3.56 1.94 -3.88 0 -3.23 1.29 -0.32-2.75 -1.62-1.94 -2.91-1.13 -1.62-1.45 -8.08-3.88 -7.6-1.78 -4.36 0.65 -5.98 0.48 -5.98 2.1 -3.48 0.61 -0.24-8.05 -2.59-1.94 -1.78-1.78 0.32-3.07 10.18-1.29 25.54-2.91 6.79-0.65 5.44 0.28 2.59 3.88 1.45 1.45 8.1 0.52 10.82-0.65 21.51-1.29 5.45-0.67 4.58 0.03 0.16 2.91 3.82 0.81 0.32-4.81 -1.62-4.53 0.95-0.73 5.11 0.45 5.17 0.32zm12.55 132.41l2.42-0.65 1.29-0.24 1.45-2.34 2.34-1.62 1.29 0.48 1.7 0.32 0.4 1.05 -3.48 1.21 -4.2 1.45 -2.34 1.21 -0.89-0.89zm13.5-5.01l1.21 1.05 2.75-2.1 5.33-4.2 3.72-3.88 2.51-6.63 0.97-1.7 0.16-3.39 -0.73 0.48 -0.97 2.83 -1.45 4.61 -3.23 5.25 -4.36 4.2 -3.39 1.94 -2.51 1.54zM761.23 412.94 761.23 412.94 761.23 412.94 761.23 412.94l-1.78 0.97 -2.59-1.29 -0.65-2.1 -1.29-3.56 -2.26-2.1 -2.59-0.65 -1.62-4.85 -2.75-5.98 -4.2-1.94 -2.1-1.94 -1.29-2.59 -2.1-1.94 -2.26-1.29 -2.26-2.91 -3.07-2.26 -4.53-1.78 -0.48-1.45 -2.42-2.91 -0.49-1.45 -3.39-5.17 -3.39 0.16 -4.04-2.42 -1.29-1.29 -0.32-1.78 0.81-1.94 2.26-0.97 -0.32-2.1 6.14-2.59 9.05-4.53 7.27-0.81 16.49-0.48 2.26 1.94 1.62 3.23 4.36-0.48 12.61-1.45 2.91 0.81 12.61 7.6 10.11 8.12 -5.42 5.46 -2.59 6.14 -0.48 6.3 -1.62 0.81 -1.13 2.75 -2.42 0.65 -2.1 3.56 -2.75 2.75 -2.26 3.39 -1.62 0.81 -3.56 3.39 -2.91 0.16 0.97 3.23 -5.01 5.5 -2.1 1.29zM689.62 357.97l-4.85 0.81 -8.41 1.13 -8.57 0.89 0 2.18 0.16 2.1 0.65 3.39 3.39 7.92 2.42 9.86 1.45 6.14 1.62 4.85 1.45 6.95 2.1 6.3 2.59 3.39 0.48 3.39 1.94 0.81 0.16 2.1 -1.78 4.85 -0.48 3.23 -0.16 1.94 1.62 4.36 0.32 5.33 -0.81 2.42 0.65 0.81 1.45 0.81 0.65 3.39 2.59 3.88 1.45 1.45 7.92 0.16 10.82-0.65 21.51-1.29 5.45-0.67 4.58 0.03 0.16 2.91 2.59 0.81 0.32-4.36 -1.62-4.53 1.13-1.62 5.82 0.81 4.98 0.32 -0.78-6.3 2.26-10.02 1.45-4.2 -0.48-2.59 3.33-6.24 -0.51-1.35 -1.91 0.7 -2.59-1.29 -0.65-2.1 -1.29-3.56 -2.26-2.1 -2.59-0.65 -1.62-4.85 -2.93-6.34 -4.2-1.94 -2.1-1.94 -1.29-2.59 -2.1-1.94 -2.26-1.29 -2.26-2.91 -3.07-2.26 -4.53-1.78 -0.48-1.45 -2.42-2.91 -0.48-1.45 -3.39-4.91 -3.39 0.16 -4.13-3.04 -1.29-1.29 -0.32-1.78 0.81-1.94 2.35-1.24 -1.13-1.22 0.08-0.29 -5.82 0.97 -6.95 0.81 -6.79 0.48zM625.6 466.77l-1.62-15.2 -2.75-18.75 0.16-14.06 0.81-31.04 -0.16-16.65 0.17-6.42 7.76-0.37 27.81-2.59 8.92-0.66 -0.15 2.18 0.16 2.1 0.65 3.39 3.39 7.92 2.42 9.86 1.45 6.14 1.62 4.85 1.45 6.95 2.1 6.3 2.59 3.39 0.48 3.39 1.94 0.81 0.16 2.1 -1.78 4.85 -0.48 3.23 -0.16 1.94 1.62 4.36 0.32 5.33 -0.81 2.42 0.65 0.81 1.45 0.81 1.04 2.54 -6.3 0 -6.79 0.65 -25.54 2.91 -10.41 1.41 -0.1 3.75 1.78 1.78 2.59 1.94 0.58 7.94 -5.54 2.57 -2.75-0.32 2.75-1.94 0-0.97 -3.07-5.98 -2.26-0.65 -1.45 4.36 -1.29 2.75 -0.65-0.16 -2.75 0zM832.11 298.47l1.71 4.7 3.56 6.47 2.42 2.42 0.65 2.26 -2.42 0.16 0.81 0.65 -0.32 4.2 -2.59 1.29 -0.65 2.1 -1.29 2.91 -3.72 1.62 -2.42-0.32 -1.45-0.16 -1.62-1.29 0.32 1.29 0 0.97 1.94 0 0.81 1.29 -1.94 6.3 4.2 0 0.65 1.62 2.26-2.26 1.29-0.48 -1.94 3.56 -3.07 4.85 -1.29 0 -1.13-0.48 -2.75 0.65 -5.17 2.42 -6.47 5.33 -3.39 4.69 -1.94 6.47 -0.48 2.42 -4.69 0.48 -5.45 1.34 -9.95-8.2 -12.61-7.6 -2.91-0.81 -12.61 1.45 -4.28 0.75 -1.62-3.23 -2.97-2.12 -16.49 0.48 -7.27 0.81 -9.05 4.53 -6.14 2.59 -1.62 0.32 -5.82 0.97 -6.95 0.81 -6.79 0.48 0.5-4.05 1.78-1.45 2.75-0.65 0.65-3.72 4.2-2.75 3.88-1.45 4.2-3.56 4.36-2.1 0.65-3.07 3.88-3.88 0.65-0.16c0 0 0 1.13 0.81 1.13 0.81 0 1.94 0.32 1.94 0.32l2.26-3.56 2.1-0.65 2.26 0.32 1.62-3.56 2.91-2.59 0.48-2.1 0-3.96 4.53 0.73 7.14-1.29 15.82-1.94 17.14-2.59 19.92-4 19.73-4.16 11.36-2.8 5.14-1.17zm3.9 32.99l2.59-2.51 3.15-2.59 1.54-0.65 0.16-2.02 -0.65-6.14 -1.45-2.34 -0.65-1.86 0.73-0.24 2.75 5.5 0.4 4.45 -0.16 3.39 -3.39 1.54 -2.83 2.42 -1.13 1.21 -1.05-0.16zM697.05 320.63l-51.89 5.01 -15.76 1.78 -4.62 0.51 -3.87-0.03 0 3.88 -8.41 0.48 -6.95 0.65 -11.1 0.05 -0.26 5.84 -2.14 6.28 -1 3.02 -1.35 4.38 -0.32 2.59 -4.04 2.26 1.45 3.56 -0.97 4.36 -0.97 0.79 7.26-0.19 24.09-1.94 5.33-0.16 8.08-0.48 27.81-2.59 10.17-0.81 8.42-0.97 8.41-1.13 4.85-0.81 -0.13-4.51 1.78-1.45 2.75-0.65 0.65-3.72 4.2-2.75 3.88-1.45 4.2-3.56 4.36-2.1 0.87-3.53 4.33-3.88 0.65-0.16c0 0 0 1.13 0.81 1.13 0.81 0 1.94 0.32 1.94 0.32l2.26-3.56 2.1-0.65 2.26 0.32 1.62-3.56 2.12-2.25 0.6-0.97 0.18-3.93 -1.48-0.29 -2.42 1.94 -7.92 0.16 -12 1.9 -9.83 0.85zM874.07 179.82l-0.48-4.2 -0.81-4.36 -1.7-5.9 5.74-1.54 1.62 1.13 3.39 4.36 2.91 4.45 -2.91 1.54 -1.29-0.16 -1.13 1.78 -2.42 1.94 -2.91 0.97zM873.19 180.05l-0.63-4.2 -0.81-4.36 -1.62-5.98 -4.15 0.9 -21.82 4.77 0.65 3.31 1.45 7.27 0 8.08 -1.13 2.26 1.83 2.11 4.96-3.4 3.56-3.23 1.94-2.1 0.81 0.65 2.75-1.45 5.17-1.13 7.04-3.49zM899.98 173.85l2.17-0.69 0.46-1.71 1.03 0.11 1.03 2.29 -1.26 0.46 -3.89 0.11 0.46-0.57zm-9.37 0.8l2.29-2.63 1.6 0 1.83 1.49 -2.4 1.03 -2.17 1.03 -1.14-0.91zm-34.8-21.99l17.46-4.2 2.26-0.65 2.1-3.23 3.74-1.66 2.89 4.41 -2.42 5.17 -0.32 1.45 1.94 2.59 1.13-0.81 1.78 0 2.26 2.59 3.88 5.98 3.56 0.48 2.26-0.97 1.78-1.78 -0.81-2.75 -2.1-1.62 -1.45 0.81 -0.97-1.29 0.48-0.48 2.1-0.16 1.78 0.81 1.94 2.42 0.97 2.91 0.32 2.42 -4.2 1.45 -3.88 1.94 -3.88 4.53 -1.94 1.45 0-0.97 2.42-1.45 0.48-1.78 -0.81-3.07 -2.91 1.45 -0.81 1.45 0.48 2.26 -2.07 1 -2.75-4.53 -3.39-4.36 -2.07-1.81 -6.53 1.88 -5.09 1.05 -21.82 4.77 -0.4-4.94 0.65-10.59 5.17-0.89 6.79-1.29zM923.21 77.33l1.94 2.1 2.26 3.72 0 1.94 -2.1 4.69 -1.94 0.65 -3.39 3.07 -4.85 5.5c0 0-0.65 0-1.29 0 -0.65 0-0.97-2.1-0.97-2.1l-1.78 0.16 -0.97 1.45 -2.42 1.45 -0.97 1.45 1.62 1.45 -0.48 0.65 -0.48 2.75 -1.94-0.16 0-1.62 -0.32-1.29 -1.45 0.32 -1.78-3.23 -2.1 1.29 1.29 1.45 0.32 1.13 -0.81 1.29 0.32 3.07 0.16 1.62 -1.62 2.59 -2.91 0.48 -0.32 2.91 -5.33 3.07 -1.29 0.48 -1.62-1.45 -3.07 3.56 0.97 3.23 -1.45 1.29 -0.16 4.36 -1.12 6.26 -2.46-1.16 -0.48-3.07 -3.88-1.13 -0.32-2.75 -7.27-23.44 -4.2-13.64 1.42-0.12 1.51 0.41 0-2.59 0.81-5.5 2.59-4.69 1.45-4.04 -1.94-2.42 0-5.98 0.81-0.97 0.81-2.75 -0.16-1.45 -0.16-4.85 1.78-4.85 2.91-8.89 2.1-4.2 1.29 0 1.29 0.16 0 1.13 1.29 2.26 2.75 0.65 0.81-0.81 0-0.97 4.04-2.91 1.78-1.78 1.45 0.16 5.98 2.42 1.94 0.97 9.05 29.91 5.98 0 0.81 1.94 0.16 4.85 2.91 2.26 0.81 0 0.16-0.48 -0.48-1.13 2.75-0.16zm-20.93 30.15l1.54-1.54 1.37 1.05 0.57 2.42 -1.7 0.89 -1.78-2.83zm6.71-5.9l1.78 1.86c0 0 1.29 0.08 1.29-0.24 0-0.32 0.24-2.02 0.24-2.02l0.89-0.81 -0.81-1.78 -2.02 0.73 -1.37 2.26zM880.8 142.42l0.87-1.08 1.09-3.29 -2.54-0.91 -0.48-3.07 -3.88-1.13 -0.32-2.75 -7.27-23.44 -4.6-14.54 -0.9-0.01 -0.65 1.62 -0.65-0.48 -0.97-0.97 -1.45 1.94 -0.05 5.03 0.31 5.67 1.94 2.75 0 4.04 -3.72 5.06 -2.59 1.13 0 1.13 1.13 1.78 0 8.57 -0.81 9.21 -0.16 4.85 0.97 1.29 -0.16 4.53 -0.48 1.78 1.45 0.89 16.39-4.69 2.26-0.65 1.53-2.55 3.74-1.7zM844.34 153.73l-0.81-5.66 -2.39-9.97 -0.65-0.32 -2.91-1.29 0.81-2.91 -0.81-2.1 -2.7-4.64 0.97-3.88 -0.81-5.17 -2.42-6.47 -0.81-4.92 26.25-6.75 0.32 5.82 1.94 2.75 0 4.04 -3.72 4.04 -2.59 1.13 0 1.13 1.13 1.78 0 8.57 -0.81 9.21 -0.16 4.85 0.97 1.29 -0.16 4.53 -0.48 1.78 0.66 1.57 -6.95 1.37 -3.88 0.22zM828.61 189.42l-1.13-0.97 -2.59-0.16 -2.26-1.94 -1.63-6.13 -3.46 0.09 -2.44-2.71 -19.39 4.38 -43 8.73 -7.53 1.23 -0.74-6.47 1.43-1.13 1.29-1.13 0.97-1.62 1.78-1.13 1.94-1.78 0.48-1.62 2.1-2.75 1.13-0.97 -0.16-0.97 -1.29-3.07 -1.78-0.16 -1.94-6.14 2.91-1.78 4.36-1.45 4.04-1.29 3.23-0.48 6.3-0.16 1.94 1.29 1.62 0.16 2.1-1.29 2.59-1.13 5.17-0.48 2.1-1.78 1.78-3.23 1.62-1.94 2.1 0 1.94-1.13 0.16-2.26 -1.45-2.1 -0.32-1.45 1.13-2.1 0-1.45 -1.78 0 -1.78-0.81 -0.81-1.13 -0.16-2.59 5.82-5.5 0.65-0.81 1.45-2.91 2.91-4.53 2.75-3.72 2.1-2.42 2.42-1.83 3.08-1.25 5.5-1.29 3.23 0.16 4.53-1.45 7.57-2.07 0.52 4.98 2.42 6.47 0.81 5.17 -0.97 3.88 2.59 4.53 0.81 2.1 -0.81 2.91 2.91 1.29 0.65 0.32 3.07 10.99 -0.54 5.06 -0.48 10.83 0.81 5.5 0.81 3.56 1.45 7.27 0 8.08 -1.13 2.26 1.84 1.99 0.8 1.68 -1.94 1.78 0.32 1.29 1.29-0.32 1.45-1.29 2.26-2.59 1.13-0.65 1.62 0.65 2.26 0.16 7.92-3.88 2.91-2.75 1.29-1.45 4.2 1.62 -3.39 3.56 -3.88 2.91 -7.11 5.33 -2.59 0.97 -5.82 1.94 -4.04 1.13 -1.17-0.53 -0.24-3.69 0.48-2.75 -0.16-2.1 -2.81-1.7 -4.53-0.97 -3.88-1.13 -3.72-1.78zM828.16 190.33l-2.1 2.42 0 3.07 -1.94 3.07 -0.16 1.62 1.29 1.29 -0.16 2.42 -2.26 1.13 0.81 2.75 0.16 1.13 2.75 0.32 0.97 2.59 3.56 2.42 2.42 1.62 0 0.81 -3.23 3.07 -1.62 2.26 -1.45 2.75 -2.26 1.29 -1.21 0.73 -0.24 1.21 -0.61 2.61 1.09 2.24 3.23 2.91 4.85 2.26 4.04 0.65 0.16 1.45 -0.81 0.97 0.32 2.75 0.81 0 2.1-2.42 0.81-4.85 2.75-4.04 3.07-6.47 1.13-5.5 -0.65-1.13 -0.16-9.38 -1.62-3.39 -1.13 0.81 -2.75 0.32 -0.48-0.48 1.13-0.97 2.1-1.94 0.06-1.09 -0.38-3.43 0.48-2.75 -0.16-2.1 -2.59-1.13 -4.53-0.97 -3.88-1.13 -3.72-1.78zM822.21 226.46l1.13-0.65 2.26-0.61 1.45-2.75 1.62-2.26 3.23-3.07 0-0.81 -2.42-1.62 -3.56-2.42 -0.97-2.59 -2.75-0.32 -0.16-1.13 -0.81-2.75 2.26-1.13 0.16-2.42 -1.29-1.29 0.16-1.62 1.94-3.07 0-3.07 2.34-2.42 0.21-1.08 -2.59-0.16 -2.26-1.94 -2.42-5.33 -3-0.93 -2.33-2.14 -18.59 4.04 -43 8.73 -8.89 1.45 -0.5-7.08 -5.49 5.63 -1.29 0.48 -4.2 3.01 2.91 19.14 2.48 9.73 3.57 19.26 3.27-0.64 11.94-1.5 37.93-7.67 14.88-2.82 8.3-1.62 0.27-0.24 2.1-1.62 2.1-0.68zM822.35 230.42l0.59-2.1 0.02-1.2 -1.27-0.09 -2.1 1.62 -1.45 1.45 1.45 4.2 2.26 5.66 2.1 9.7 1.62 6.3 5.01-0.16 6.14-1.21 -2.26-7.36 -0.97 0.48 -3.56-2.42 -1.78-4.69 -1.94-3.56 -2.26-0.97 -2.1-3.56 0.5-2.1zM836.95 255.3l-6.14 1.29 -5.81 0.16 -1.84-7.1 -2.1-9.7 -2.26-5.66 -1.29-4.4 -7.51 1.62 -14.88 2.82 -37.45 7.55 1.13 5.01 0.97 5.66 0.32-0.32 2.1-2.42 2.26-2.62 2.42-0.62 1.45-1.45 1.78-2.59 1.29 0.65 2.91-0.32 2.59-2.1 2.01-1.45 1.85-0.48 1.64 1.13 2.91 1.45 1.94 1.78 1.21 1.54 4.12 1.7 0 2.91 5.5 1.29 1.14 0.54 1.41-2.03 2.88 1.97 -1.28 2.48 -0.77 3.99 -1.78 2.59 0 2.1 0.65 1.78 5.06 1.36 4.31-0.06 3.07 0.97 2.1 0.32 0.97-2.1 -1.45-2.1 0-1.78 -2.42-2.1 -2.1-5.5 1.29-5.33 -0.16-2.1 -1.29-1.29c0 0 1.45-1.62 1.45-2.26 0-0.65 0.48-2.1 0.48-2.1l1.94-1.29 1.94-1.62 0.48 0.97 -1.45 1.62 -1.29 3.72 0.32 1.13 1.78 0.32 0.48 5.5 -2.1 0.97 0.32 3.56 0.48-0.16 1.13-1.94 1.62 1.78 -1.62 1.29 -0.32 3.39 2.59 3.39 3.88 0.48 1.62-0.81 3.24 4.18 1.36 0.54 6.65-2.8 2.01-4.02 0.23-4.86zm-16.63 8.98l1.13 2.51 0.16 1.78 1.13 1.86c0 0 0.89-0.89 0.89-1.21 0-0.32-0.73-3.07-0.73-3.07l-0.73-2.34 -1.86 0.48zM756.56 241.97l1.11 4.94 1.08 6.91 3.56-2.75 2.26-3.07 2.54-0.62 1.45-1.45 1.78-2.59 1.18 0.65 2.91-0.32 2.59-2.1 2.01-1.45 1.85-0.48 1.3 1.02 2.23 1.11 1.94 1.78 1.37 1.29 -0.14 4.67 -5.66-3.07 -4.53-1.78 -0.16 5.33 -0.48 2.1 -1.62 2.75 -0.65 1.62 -3.07 2.42 -0.48 2.26 -3.39 0.32 -0.32 3.07 -1.13 5.5 -2.59 0 -1.29-0.81 -1.62-2.75 -1.78 0.16 -0.32 4.36 -2.1 6.63 -5.01 10.83 0.81 1.29 -0.16 2.75 -2.1 1.94 -1.45-0.32 -3.23 2.42 -2.59-0.97 -1.78 4.69c0 0-3.72 0.81-4.36 0.97 -0.65 0.16-2.42-1.29-2.42-1.29l-2.42 2.26 -2.59 0.65 -2.91-0.81 -1.29-1.29 -2.19-3.02 -3.14-1.99 -2.59-2.75 -2.91-3.72 -0.65-2.26 -2.59-1.45 -0.81-1.62 -0.24-5.25 2.18-0.08 1.94-0.81 0.16-2.75 1.62-1.45 0.16-5.01 0.97-3.88 1.29-0.65 1.29 1.13 0.48 1.78 1.78-0.97 0.48-1.62 -1.13-1.78 0-2.42 0.97-1.29 2.26-3.39 1.29-1.45 2.1 0.48 2.26-1.62 3.07-3.39 2.26-3.88 0.32-5.66 0.48-5.01 0-4.69 -1.13-3.07 0.97-1.45 1.28-1.29 3.49 19.83 4.63-0.75 11.3-1.55zM721.78 297.82l-2.32 2.68 -4.2 3.56 -4.3 5.9 -1.78 1.78 0 2.1 -3.88 2.1 -5.66 3.39 -3.52 0.38 -51.87 4.9 -15.76 1.78 -4.62 0.51 -3.87-0.03 -0.23 4.22 -8.18 0.14 -6.95 0.65 -10.43 0.21 1.91-0.22 2.18-1.76 2.06-1.14 0.23-3.2 0.91-1.83 -1.61-2.54 0.8-1.91 2.26-1.78 2.1-0.65 2.75 1.29 3.56 1.29 1.13-0.32 0.16-2.26 -1.29-2.42 0.32-2.26 1.94-1.45 2.59-0.65 1.62-0.65 -0.81-1.78 -0.65-1.94 1.13-0.81 1.05-3.31 2.99-1.7 5.82-0.97 3.56-0.48 1.45 1.94 1.78 0.81 1.78-3.23 2.91-1.45 1.94 1.62 0.81 1.13 2.1-0.48 -0.16-3.39 2.91-1.62 1.13-0.81 1.13 1.62 4.69 0 0.81-2.1 -0.32-2.26 2.91-3.56 4.69-3.88 0.48-4.53 2.75-0.32 3.88-1.78 2.75-1.94 -0.32-1.94 -1.45-1.45 0.57-2.18 4.12-0.24 2.42-0.81 2.91 1.62 1.62 4.36 5.82 0.32 1.78 1.78 2.1 0.16 2.42-1.45 3.07 0.48 1.29 1.45 2.75-2.59 1.78-1.29 1.62 0 0.65 2.75 1.78 0.97 2.42 2.22 0.16 5.5 0.81 1.62 2.59 1.45 0.65 2.26 2.91 3.72 2.59 2.75 3.39 1.97zM731.44 195.01l-6.09 4.05 -3.88 2.26 -3.39 3.72 -4.04 3.88 -3.23 0.81 -2.91 0.48 -5.5 2.59 -2.1 0.16 -3.39-3.07 -5.17 0.65 -2.59-1.45 -2.38-1.35 -4.89 0.7 -10.18 1.62 -7.76 1.21 1.29 14.63 1.78 13.74 2.59 23.44 0.57 4.83 4.12-0.13 2.42-0.81 3.36 1.5 2.07 4.36 5.14-0.02 1.89 2.12 1.76-0.07 2.54-1.34 2.5 0.37 1.97 1.45 1.73-2.13 2.35-1.29 2.07-0.68 0.65 2.75 1.78 0.97 3.48 2.34 2.18-0.08 1.15-1.15 -0.07-1.39 1.62-1.45 0.16-5.01c0 0 0.97-3.88 0.97-3.88l1.52-1.44 1.52 0.9 0.83 1.21 1.21-0.18 -0.42-2.41 -0.56-0.64 0-2.42 0.97-1.29 2.26-3.39 1.29-1.45 2.1 0.48 2.26-1.62 3.07-3.39 2.26-3.88 0.21-5.43 0.48-5.01 0-4.69 -1.13-3.07 0.97-1.45 0.92-0.95 -1.4-9.84 -2.91-19.36zM581.62 82.06l1.83-2.06 2.17-0.8 5.37-3.89 2.29-0.57 0.46 0.46 -5.14 5.14 -3.32 1.94 -2.06 0.91 -1.6-1.14zm86.17 32.13l0.65 2.51 3.23 0.16 1.29-1.21c0 0-0.08-1.45-0.4-1.62 -0.32-0.16-1.62-1.86-1.62-1.86l-2.18 0.24 -1.62 0.16 -0.32 1.13 0.97 0.48zm30.07 63.05l-3.23-8.24 -2.26-9.05 -2.42-3.23 -2.59-1.78 -1.62 1.13 -3.88 1.78 -1.94 5.01 -2.75 3.72 -1.13 0.65 -1.45-0.65c0 0-2.59-1.45-2.42-2.1 0.16-0.65 0.48-5.01 0.48-5.01l3.39-1.29 0.81-3.39 0.65-2.59 2.42-1.62 -0.32-10.02 -1.62-2.26 -1.29-0.81 -0.81-2.1 0.81-0.81 1.62 0.32 0.16-1.62 -2.42-2.26 -1.29-2.59 -2.59 0 -4.53-1.45 -5.5-3.39 -2.75 0 -0.65 0.65 -0.97-0.48 -3.07-2.26 -2.91 1.78 -2.91 2.26 0.32 3.56 0.97 0.32 2.1 0.48 0.48 0.81 -2.59 0.81 -2.59 0.32 -1.45 1.78 -0.32 2.1 0.32 1.62 0.32 5.5 -3.56 2.1 -0.65-0.16 0-4.2 1.29-2.42 0.65-2.42 -0.81-0.81 -1.94 0.81 -0.97 4.2 -2.75 1.13 -1.78 1.94 -0.16 0.97 0.65 0.81 -0.65 2.59 -2.26 0.48 0 1.13 0.81 2.42 -1.13 6.14 -1.62 4.04 0.65 4.69 0.48 1.13 -0.81 2.42 -0.32 0.81 -0.32 2.75 3.56 5.98 2.91 6.47 1.45 4.85 -0.81 4.69 -0.97 5.98 -2.42 5.17 -0.32 2.75 -3.26 3.09 4.41-0.16 21.42-2.26 7.28-0.99 0.1 1.67 6.85-1.21 10.3-1.5 3.85-0.46 0.14-0.59 0.16-1.45 2.1-3.72 2-1.74 -0.22-5.05 1.6-1.6 1.09-0.34 0.22-3.56 1.54-3.03 1.05 0.61 0.16 0.65 0.81 0.16 1.94-0.97 -0.32-9.54zm-130.37-66.02l0.72-0.58 2.75-0.81 3.56-2.26 0-0.97 0.65-0.65 5.98-0.97 2.42-1.94 4.36-2.1 0.16-1.29 1.94-2.91 1.78-0.81 1.29-1.78 2.26-2.26 4.36-2.42 4.69-0.48 1.13 1.13 -0.32 0.97 -3.72 0.97 -1.45 3.07 -2.26 0.81 -0.48 2.42 -2.42 3.23 -0.32 2.59 0.81 0.48 0.97-1.13 3.56-2.91 1.29 1.29 2.26 0 3.23 0.97 1.45 1.13 1.45 3.07 2.75 2.75 3.88-0.16 1.45-0.97 1.62 1.29 1.62 0.48 1.29-0.81 1.13 0 1.62-0.97 4.04-3.56 3.39-1.13 6.63-0.32 4.53-1.94 2.59-1.29 1.45 0.16 0 5.66 0.48 0.32 2.91 0.81 1.94-0.48 6.14-1.62 1.13-1.13 1.45 0.48 0 6.95 3.23 3.07 1.29 0.65 1.29 0.97 -1.29 0.32 -0.81-0.32 -3.72-0.48 -2.1 0.65 -2.26-0.16 -3.23 1.45 -1.78 0 -5.82-1.29 -5.17 0.16 -1.94 2.59 -6.95 0.65 -2.42 0.81 -1.13 3.07 -1.29 1.13 -0.48-0.16 -1.45-1.62 -4.53 2.42 -0.65 0 -1.13-1.62 -0.81 0.16 -1.94 4.36 -0.97 4.04 -3.18 7 -1.18-1.03 -1.37-1.03 -1.94-10.29 -3.54-1.37 -2.05-2.29 -12.12-2.74 -2.86-1.03 -8.23-2.17 -7.89-1.14 -3.72-5.15zM354.25 143.78l-10.55-0.81 -32.09-3.3 -16.23-2.06 -28.35-4.12 -19.89-2.97 -1.42 11.18 -3.84 24.26 -5.26 30.41 -1.53 10.52 -1.67 11.89 6.52 0.93 25.88 2.5 20.57 2.31 36.78 4.12 23.82 2.86 4.5-44.19 1.44-25.38 1.3-18.14zM356.67 122.27l0.65-11.15 2.26-24.79c0.46-5.03 1.08-8.47 1.37-15.41l0.94-14.55 -30.67-2.81 -29.26-3.56 -29.26-4.04 -32.33-5.33 -18.43-3.39 -32.72-6.93 -4.48 21.35 3.43 7.54 -1.37 4.57 1.83 4.57 3.2 1.37 4.62 10.77 2.7 3.18 0.46 1.14 3.43 1.14 0.46 2.06 -7.09 17.6 0 2.51 2.51 3.2 0.91 0 4.8-2.97 0.69-1.14 1.6 0.69 -0.23 5.26 2.74 12.57 2.97 2.51 0.91 0.69 1.83 2.29 -0.46 3.43 0.69 3.43 1.14 0.91 2.29-2.29 2.74 0 3.2 1.6 2.51-0.91 4.12 0 3.66 1.6 2.74-0.46 0.46-2.97 2.97-0.69 1.37 1.37 0.46 3.2 1.78 1.36 1.53-11.57 20.69 2.97 28.19 3.95 16.55 1.9 31.45 3.46 10.99 1.52 1.05-15.43 1.41-5.35zM162.12 180.96c-22.61-4.34-14.15-2.85-21.14-4.35l4.43-17.5 4.34-17.72 1.37-4.23 2.51-5.94 -1.26-2.29 -2.51 0.11 -0.8-1.03 0.46-1.14 0.34-3.09 4.46-5.49 1.83-0.46 1.14-1.14 0.57-3.2 0.91-0.69 3.89-5.83 3.89-4.34 0.23-3.77 -3.43-2.63 -1.31-4.4 0.4-9.66 3.66-16.46 4.46-20.8 3.77-13.49 0.76-3.8 13 2.53 -4.16 21.51 2.95 7.71 -1.05 4.57 1.99 4.57 3.2 1.69 4.46 9.81 2.7 3.82 0.62 1.14 3.43 1.14 0.46 2.54 -6.93 16.8 0.32 3.32 2.68 2.88 1.88 0.48 4.8-3.61 0.36-0.5 0.16 0.85 0.25 4.13 2.58 12.9 3.45 2.68 0.43 0.85 2.15 2.45 -0.78 2.79 0.69 3.75 1.95 0.91 2.13-1.64 2.58-0.48 3.36 1.6 2.51-0.59 3.79-0.16 3.98 1.6 2.74-0.3 0.94-2.33 2.49-1.65 0.73 1.69 0.62 2.24 2.31 2.54 -3.77 23.98 -5.14 29.01 -4.16-0.32 -8.18-1.53 -9.81-1.83 -12.16-2.38 -12.53-2.5 -8.48-1.84 -9.26-1.67 -9.24-1.78zM93.57 6.36l4.36 1.45 9.7 2.75 8.57 1.94 20.05 5.66 22.96 5.66 15.16 3.39 -1 3.88 -4.09 13.81 -4.46 20.8 -3.18 16.14 -0.35 9.38 -13.18-3.89 -15.57-3.38 -13.67 0.6 -1.58-1.53 -5.33 1.9 -3.98-0.25 -2.72-1.76 -1.58 0.53 -4.21-0.23 -1.88-1.37 -4.78-1.74 -1.44-0.21 -4.99-1.33 -1.78 1.51 -5.69-0.34 -4.82-3.79 0.2-0.8 0.07-7.93 -2.13-3.89 -4.12-0.73 -0.36-2.35 -2.51-0.63 -2.88-0.53 -1.78 0.97 -2.26-2.91 0.32-2.91 2.75-0.32 1.62-4.04 -2.59-1.13 0.16-3.72 4.36-0.65 -2.75-2.75 -1.45-7.11 0.65-2.91 0-7.92 -1.78-3.23 2.26-9.38 2.1 0.48 2.42 2.91 2.75 2.59 3.23 1.94 4.53 2.1 3.07 0.65 2.91 1.45 3.39 0.97 2.26-0.16 0-2.42 1.29-1.13 2.1-1.29 0.32 1.13 0.32 1.78 -2.26 0.48 -0.32 2.1 1.78 1.45 1.13 2.42 0.65 1.94 1.45-0.16 0.16-1.29 -0.97-1.29 -0.48-3.23 0.81-1.78 -0.65-1.45 0-2.26 1.78-3.56 -1.13-2.59 -2.42-4.85 0.32-0.81 1.13-0.81zm-9.46 5.98l2.02-0.16 0.48 1.37 1.54-1.62 2.34 0 0.81 1.54 -1.54 1.7 0.65 0.81 -0.73 2.02 -1.37 0.4c0 0-0.89 0.08-0.89-0.24 0-0.32 1.45-2.59 1.45-2.59l-1.7-0.57 -0.32 1.45 -0.73 0.65 -1.54-2.26 -0.48-2.51zM357.05 333.37l22.69 1.09 31.09 1.14 -2.33 23.46 -0.3 18.15 0.07 2.08 4.34 3.82 1.74 0.82 1.81 0.25 0.69-1.26 0.89 0.87 1.74 0.48 1.6-0.73 1.14 0.41 -0.3 3.41 4.28 1.03 2.68 0.82 3.95 0.53 2.19 1.83 3.25-1.58 2.79 0.36 2.03 2.79 1.07 0.32 -0.16 1.97 3.09 1.17 2.77-1.8 1.51 0.36 2.35 0.16 0.43 1.87 4.64 1.99 2.66-0.2 1.99-4.12 0.34 0 1.14 1.9 4.44 1.01 3.34 1.21 3.29 0.75 2.15-0.75 0.85-2.51 3.7 0 1.9 0.75 3.06-1.58 0.66 0 0.36 1.12 4.28 0 2.4-1.26 1.67 0.3 1.42 1.87 2.88 1.67 3.52 1.07 2.74 1.42 2.45 1.62 3.29-0.89 1.94 0.98 0.51 10.14 0.34 9.7 0.69 9.53 0.53 4.05 2.68 4.6 1.07 4.07 3.86 6.29 0.55 2.88 0.53 1.01 -0.69 7.5 -2.65 4.39 0.96 2.86 -0.36 2.51 -0.85 7.32 -1.37 2.72 0.6 4.39 -5.66 1.59 -9.86 4.53 -0.97 1.94 -2.59 1.94 -2.1 1.45 -1.29 0.81 -5.66 5.33 -2.75 2.1 -5.33 3.23 -5.66 2.42 -6.3 3.39 -1.78 1.45 -5.82 3.56 -3.39 0.65 -3.88 5.5 -4.04 0.32 -0.97 1.94 2.26 1.94 -1.45 5.5 -1.29 4.53 -1.13 3.88 -0.81 4.53 0.81 2.42 1.78 6.95 0.97 6.14 1.78 2.75 -0.97 1.45 -3.07 1.94 -5.66-3.88 -5.5-1.13 -1.29 0.48 -3.23-0.65 -4.2-3.07 -5.17-1.13 -7.6-3.39 -2.1-3.88 -1.29-6.47 -3.23-1.94 -0.65-2.26 0.65-0.65 0.32-3.39 -1.29-0.65 -0.65-0.97 1.29-4.36 -1.62-2.26 -3.23-1.29 -3.39-4.36 -3.56-6.63 -4.2-2.59 0.16-1.94 -5.33-12.29 -0.81-4.2 -1.78-1.94 -0.16-1.45 -5.98-5.33 -2.59-3.07 0-1.13 -2.59-2.1 -6.79-1.13 -7.44-0.65 -3.07-2.26 -4.53 1.78 -3.56 1.45 -2.26 3.23 -0.97 3.72 -4.36 6.14 -2.42 2.42 -2.59-0.97 -1.78-1.13 -1.94-0.65 -3.88-2.26 0-0.65 -1.78-1.94 -5.17-2.1 -7.44-7.76 -2.26-4.69 0-8.08 -3.23-6.47 -0.48-2.75 -1.62-0.97 -1.13-2.1 -5.01-2.1 -1.29-1.62 -7.11-7.92 -1.29-3.23 -4.69-2.26 -1.45-4.36 -2.59-2.91 -1.94-0.48 -0.65-4.68 8 0.69 29.03 2.74 29.04 1.6 2.29-23.78 3.89-55.56 1.6-18.75 1.37 0.03m98.98 233.98l-0.57-7.11 -2.75-7.19 -0.57-7.03 1.54-8.24 3.31-6.87 3.48-5.42 3.15-3.56 0.65 0.24 -4.77 6.63 -4.36 6.55 -2.02 6.63 -0.32 5.17 0.89 6.14 2.59 7.19 0.48 5.17 0.16 1.45 -0.89 0.24zM136.74 386.75l3.82-0.49 1.49-2.01 0.73-1.94 -3.18-0.09 -1.1-1.76 0.78-1.71 -0.05-6.15 2.22-1.33 2.7-2.58 0.41-4.92 1.65-3.5 1.94-2.1 3.27-1.71 1.28-0.73 0.76-1.48 -0.87-0.89 -0.96-1.51 -0.94-5.35 -2.9-5.24 0.1-2.79 -2.2-3.25 -15-23.23 -19.43-28.71 -22.43-33.03 -12.7-19.54 1.8-7.21 6.81-25.95 8.12-31.44 -12.37-3.34 -13.49-3.43 -12.57-4.12 -7.54-2.06 -11.43-2.97 -7.05-2.41 -1.58 4.72 -0.16 7.44 -5.17 11.8 -3.07 2.59 -0.32 1.13 -1.78 0.81 -1.45 4.2 -0.81 3.23 2.75 4.2 1.62 4.2 1.13 3.56 -0.32 6.47 -1.78 3.07 -0.65 5.82 -0.97 3.72 1.78 3.88 2.75 4.53 2.26 4.85 1.29 4.04 -0.32 3.23 -0.32 0.48 0 2.1 5.66 6.3 -0.48 2.42 -0.65 2.26 -0.65 1.94 0.16 8.24 2.1 3.72 1.94 2.59 2.75 0.49 0.97 2.75 -1.13 3.56 -2.1 1.62 -1.13 0 -0.81 3.88 0.48 2.91 3.23 4.36 1.62 5.33 1.45 4.69 1.29 3.07 3.39 5.82 1.45 2.59 0.48 2.91 1.62 0.97 0 2.42 -0.81 1.94 -1.78 7.11 -0.48 1.94 2.42 2.75 4.2 0.48 4.53 1.78 3.88 2.1 2.91 0 2.91 3.07 2.59 4.85 1.13 2.26 3.88 2.1 4.85 0.81 1.45 2.1 0.65 3.23 -1.45 0.65 0.32 0.97 3.23 0.81 2.75 0.16 2.91 4.69 3.88 4.2 0.81 2.26 2.59 4.2 0.32 3.23 0 9.38 0.48 1.78 10.02 1.45 19.72 2.75 13.91 0.97zm-87.95-49.72l1.29 1.54 -0.16 1.29 -3.23-0.08 -0.57-1.21 -0.65-1.45 3.31-0.08zm1.94 0l1.21-0.65 3.56 2.1 3.07 1.21 -0.89 0.65 -4.53-0.24 -1.62-1.62 -0.81-1.45zm20.69 19.8l1.78 2.34 0.81 0.97 1.54 0.57 0.57-1.45 -0.97-1.78 -2.67-2.02 -1.05 0.16 0 1.21zm-1.45 8.65l1.78 3.15 1.21 1.94 -1.45 0.24 -1.29-1.21c0 0-0.73-1.45-0.73-1.86 0-0.4 0-2.18 0-2.18l0.48-0.08zM137.75 387.5l-2.63 2.16 -0.32 1.45 0.48 0.97 18.91 10.67 12.12 7.6 14.71 8.57 16.81 10.02 12.29 2.42 25.13 2.7 2.53-12.51 3.75-27.24 6.96-52.88 4.26-30.97 -24.6-3.68 -27.21-4.57 -33.43-6.32 -2.92 18.09 -0.46 0.46 -1.71 2.63 -2.51-0.11 -1.26-2.74 -2.74-0.34 -0.91-1.14 -0.91 0 -0.91 0.57 -1.94 1.03 -0.11 6.97 -0.23 1.71 -0.57 12.57 -1.49 2.17 -0.57 3.32 2.74 4.92 1.26 5.83 0.8 1.03 1.03 0.57 -0.11 2.29 -1.6 1.37 -3.43 1.71 -1.94 1.94 -1.49 3.66 -0.57 4.92 -2.86 2.74 -2.06 0.69 -0.11 5.83 -0.46 1.71 0.46 0.8 3.66 0.57 -0.57 2.74 -1.49 2.17 -3.77 0.91zM140.66 177.57l20.98 4.51 9.72 1.94 9.26 1.83 6.61 1.63 -0.56 5.87 -3.54 17.33 -4.09 19.98 -1.94 9.72 -2.17 13.28 -3.15 16.41 -3.52 15.68 -1.97 10.18 -2.47 16.77 -0.46 1.1 -1.07 2.47 -1.87-0.11 -1.1-2.74 -2.74-0.5 -1.4-0.98 -2.04 0.32 -0.91 0.73 -1.3 1.35 -0.44 6.97 -0.55 1.71 -0.41 12.09 -1.32 1.71 -1.88-2.26 -14.52-22.75 -19.43-29.04 -22.75-33.84 -12.38-18.58 1.64-6.57 6.97-25.95 7.89-31.35 33.61 8.14 13.72 2.97M252.97 309.31l-24.64-3.47 -26.56-4.89 -33.83-6.02 1.59-9.16 3.2-15.2 3.32-16.58 2.17-13.6 1.94-8.92 3.77-20.46 3.54-17.49 1.11-5.57 12.72 2.26 12 2.06 10.29 1.83 8.34 1.37 3.68 0.48 -1.48 10.63 -2.31 13.17 7.81 0.93 16.41 1.8 8.21 0.86 -2.13 21.97 -3.2 22.57 -3.75 27.83 -1.67 11.11 -0.53 2.51zM378.62 256.8l1.44-21.28 -32.1-3.06 -24.46-2.7 -37.27-4.12 -20.69-2.51 -2.63 22.18 -3.2 22.41 -3.75 27.99 -1.51 11.11 -0.25 2.76 33.93 3.79 37.74 4.27 31.96 3.17 16.61 0.85M282.72 431.05l-0.65-6.12 8.64 0.53 29.52 3.06 28.39 1.44 1.97-22.33 3.73-55.88 1.12-19.39 2.01 0.35 -0.01-11.08 -32.2-2.4 -36.94-4.43 -34.46-4.12 -4.2 30.76 -6.96 53.2 -3.75 26.92 -2.05 13.31 15.46 1.99 1.29-10.02 16.65 2.59 12.46 1.62zM140.31 176.69l4.3-17.9 4.66-17.88 1.05-4.23 2.35-5.62 -0.62-1.16 -2.51-0.05 -1.28-1.67 0.46-1.46 0.5-3.25 4.46-5.49 1.83-1.1 1.14-1.14 1.49-3.57 4.05-5.67 3.57-3.86 0.23-3.45 -3.27-2.47 -1.21-4.51 -13.24-3.74 -15.09-3.54 -15.43 0.11 -0.46-1.37 -5.49 2.06 -4.46-0.57 -2.4-1.6 -1.26 0.69 -4.69-0.23 -1.71-1.37 -5.26-2.06 -0.8 0.11 -4.34-1.49 -1.94 1.83 -6.17-0.34 -5.94-4.12 0.69-0.8 0.23-7.77 -2.29-3.89 -4.12-0.57 -0.69-2.51 -2.35-0.47 -5.8 2.06 -2.26 6.47 -3.23 10.02 -3.23 6.47 -5.01 14.06 -6.47 13.58 -8.08 12.61 -1.94 2.91 -0.81 8.57 -1.29 5.98 2.71 3.53 6.73 2.25 11.59 3.29 7.87 2.54 12.41 3.63 13.33 3.59 13.17 3.57M471.31 127.67l-0.36-7.5 -1.99-7.32 -1.83-13.65 -0.46-9.83 -1.99-3.11 -1.6-5.35 0-10.29 0.69-3.89 -2.12-5.5 -28.42-0.56 -18.59-0.65 -26.51-1.29 -24.95-1.88 -1.26 14.23 -1.37 15.09 -2.26 24.95 -0.49 11.02 56.82 3.76 56.69 1.76zM472.8 203.18l-0.95-1.08 -1.52-3.63 1.83-3.7 1.05-5.56 -2.58-2.06 -0.3-2.74 0.59-3 2.15-0.8 0.3-5.74 -0.07-30.09 -0.62-2.97 -4.12-3.59 -0.98-1.99 0-1.92 1.9-1.28 1.53-1.85 0.18-2.72 -57.38-1.6 -56.17-3.89 -0.77 5.28 -1.61 15.87 -1.35 17.95 -1.6 24.6 16.03 1.03 19.64 1.14 17.99 1.3 23.78 1.3 10.75-0.78 2.86 2.29 4.32 2.97 0.98 0.75 3.54-0.89 4.05-0.3 2.74-0.07 3.11 1.21 4.55 1.44 3.13 1.76 0.62 1.92 0.91 1.9 0.71-0.48 0.78 0zM484.24 246.99l1.37 2.68 0.09 2.13 2.35 3.73 2.72 3.15 -5.05 0 -43.48-0.94 -40.79-0.89 -21.19-0.96 1.07-21.33 -33.38-2.74 4.34-44.01 15.55 1.03 20.12 1.14 17.83 1.14 23.78 1.14 10.75-0.46 2.06 2.29 4.8 2.97 1.14 0.91 4.34-1.37 3.89-0.46 2.74-0.23 1.83 1.37 5.03 1.6 2.97 1.6 0.46 1.6 0.91 2.06 1.83 0 0.8 0.05 0.98 5.21 2.74 8.03 1.24 4.64 2.13 3.82 0.53 4.94 1.44 4.28 0.55 6.47M566.59 201.63l0.17 1.94 2.29 1.14 1.14 1.26 0.34 1.26 3.89 3.2 0.69 2.17 -0.8 2.86 -1.49 3.54 -0.8 2.74 -2.17 1.6 -1.72 0.57 -5.49 1.49 -0.69 2.28 -0.8 2.28 0.57 1.37 1.72 1.71 0 3.66 -2.17 1.6 -0.46 1.49 0 2.52 -1.49 0.46 -1.71 1.37 -0.46 1.49 0.46 1.72 -1.37 1.2 -2.29-2.69 -1.48-2.63 -8.34 0.8 -10.17 0.57 -25.04 0.69 -13.03 0.23 -9.37 0.23 -1.32 0.12 -1.65-4.47 -0.23-6.63 -1.6-4.12 -0.69-5.26 -2.29-3.66 -0.91-4.8 -2.74-7.54 -1.14-5.37 -1.37-2.17 -1.6-2.74 1.83-4.34 1.37-5.72 -2.74-2.06 -0.46-2.74 0.91-2.51 1.71 0 11.55 0 49.61-0.69 19.88-0.69 1.85 2.75 1.83 2.62 0.46 0.8 -1.83 2.75 0.46 4.22 2.51 3.89 2.97 1.82 2.4 0.23 1.31 2.18zM624.56 466.97l-0.25 1.26 -5.17 0 -1.45-0.81 -2.1-0.32 -6.79 1.94 -1.78-0.81 -2.59 4.2 -1.1 0.78 -1.12-2.49 -1.14-3.89 -3.43-3.2 1.14-7.54 -0.69-0.91 -1.83 0.23 -8.23 0.69 -24.23 0.69 -0.46-1.6 0.69-8 3.43-6.17 5.26-9.14 -0.91-2.06 1.14 0 0.69-3.2 -2.29-1.83 0.23-1.83 -2.06-4.57 -0.29-5.34 1.37-2.66 -0.4-4.34 -1.37-2.97 1.37-1.37 -1.37-2.06 0.46-1.83 0.91-6.17 2.97-2.74 -0.69-2.06 3.66-5.26 2.74-0.91 0-2.51 -0.69-1.37 2.74-5.26 2.74-1.14 0.11-3.41 8.68-0.08 24.09-1.94 4.58-0.23 0.01 6.37 0.16 16.65 -0.81 31.04 -0.16 14.06 2.75 18.75 1.48 15.4zM618.42 300.86l0.07-2.86 0.48-4.53 2.26-2.91 1.78-3.88 2.59-4.2 -0.48-5.82 -1.78-2.75 -0.32-3.23 0.81-5.5 -0.48-6.95 -1.29-16 -1.29-15.36 -0.97-11.72 3.07 0.89 1.45 0.97 1.13-0.32 2.1-1.94 2.83-1.62 5.09-0.16 21.99-2.26 5.58-0.53 1.5 15.96 4.25 36.84 0.6 5.77 -0.37 2.26 1.23 1.8 0.1 1.37 -2.52 1.6 -3.54 1.55 -3.2 0.55 -0.6 4.87 -4.57 3.31 -2.8 4.01 0.32 2.38 -0.58 1.53 -3.33 0 -1.59-1.62 -2.49 1.26 -2.68 1.5 0.16 3.05 -1.19 0.26 -0.47-1.02 -2.17-1.5 -3.25 1.34 -1.55 3.01 -1.44-0.81 -1.45-1.6 -4.46 0.48 -5.59 0.97 -2.91 1.55zM617.8 301.6l0-3.6 0.26-4.87 2.38-3.14 1.78-3.77 2.59-3.86 -0.37-5.25 -2.01-3.54 -0.1-3.35 0.69-5.27 -0.83-7.18 -1.07-15.78 -1.29-15.02 -0.92-11.64 -0.27-0.92 -0.81-2.59 -1.29-3.72 -1.62-1.78 -1.45-2.59 -0.23-5.49 -9.9 1.31 -27.21 1.71 -8.69-0.43 0.23 2.37 2.29 0.69 0.91 1.14 0.46 1.83 3.89 3.43 0.69 2.29 -0.69 3.43 -1.83 3.66 -0.69 2.51 -2.29 1.83 -1.83 0.69 -5.26 1.37 -0.69 1.83 -0.69 2.06 0.69 1.37 1.83 1.6 -0.23 4.12 -1.83 1.6 -0.69 1.6 0 2.74 -1.83 0.46 -1.6 1.14 -0.23 1.37 0.23 2.06 -1.71 1.31 -1.03 2.8 0.46 3.66 2.29 7.32 7.32 7.54 5.49 3.66 -0.23 4.34 0.91 1.37 6.4 0.46 2.74 1.37 -0.69 3.66 -2.29 5.94 -0.69 3.2 2.29 3.89 6.4 5.26 4.57 0.69 2.06 5.03 2.06 3.2 -0.91 2.97 1.6 4.12 1.83 2.06 1.94-0.79 0.69-2.16 2.04-1.44 3.24-1.1 3.09 1.18 2.88 1.07 0.79-0.21 -0.07-1.24 -1.07-2.77 0.44-2.38 2.28-1.57 2.36-0.99 1.16-0.42 -0.58-1.32 -0.76-2.17 1.25-1.26 0.97-2.71zM471.88 128.47l-0.46-8.46 -1.83-7.32 -1.83-13.49 -0.46-9.83 -1.83-3.43 -1.6-5.03 0-10.29 0.69-3.89 -1.82-5.45 30.13 0.04 0.32-8.24 0.65-0.16 2.26 0.48 1.94 0.81 0.81 5.5 1.45 6.14 1.62 1.62 4.85 0 0.32 1.45 6.3 0.32 0 2.1 4.85 0 0.32-1.29 1.13-1.13 2.26-0.65 1.29 0.97 2.91 0 3.88 2.59 5.33 2.42 2.42 0.48 0.48-0.97 1.45-0.48 0.48 2.91 2.59 1.29 0.48-0.48 1.29 0.16 0 2.1 2.59 0.97 3.07 0 1.62-0.81 3.23-3.23 2.59-0.48 0.81 1.78 0.48 1.29 0.97 0 0.97-0.81 8.89-0.32 1.78 3.07 0.65 0 0.71-1.08 4.44-0.37 -0.61 2.28 -3.94 1.84 -9.25 4.06 -4.77 2.01 -3.07 2.59 -2.42 3.56 -2.26 3.88 -1.78 0.81 -4.53 5.01 -1.29 0.16 -3.84 2.93 -2.82 3.16 -0.23 2.97 0.23 7.78 -1.6 1.6 -5.26 4.11 -1.83 5.72 2.52 3.65 0.46 2.52 -1.15 2.97 -0.23 3.66 0.46 7.08 3.43 4.11 2.98 0 2.51 2.29 3.2 1.37 3.66 5.03 7.09 5.02 1.83 2.06 0.23 5.5 -20.59 0.69 -60.25 0.46 -0.34-35.68 -0.46-2.97 -4.12-3.43 -1.14-1.83 0-1.6 2.06-1.6 1.37-1.37 0.23-3.2zM612.94 197.18l0.37-2.97 -1.62-4.53 -0.65-6.14 -1.13-2.42 0.97-3.07 0.81-2.91 1.45-2.59 -0.65-3.39 -0.65-3.56 0.48-1.78 1.94-2.42 0.16-2.75 -0.81-1.29 0.65-2.59 0.48-3.23 2.75-5.66 2.91-6.79 0.16-2.26 -0.32-0.97 -0.81 0.48 -4.2 6.3 -2.75 4.04 -1.94 1.78 -0.81 2.26 -1.45 0.81 -1.13 1.94 -1.45-0.32 -0.16-1.78 1.29-2.42 2.1-4.69 1.78-1.62 1.1-2.29 -1.63-0.91 -1.37-1.37 -1.6-10.29 -3.66-1.14 -1.37-2.29 -12.57-2.74 -2.51-1.14 -8.23-2.29 -8.23-1.14 -4.17-5.4 -0.53 1.26 -1.13-0.16 -0.65-1.13 -2.75-0.81 -1.13 0.16 -1.78 0.97 -0.97-0.65 0.65-1.94 1.94-3.07 1.13-1.13 -1.94-1.45 -2.1 0.81 -2.91 1.94 -7.44 3.23 -2.91 0.65 -2.91-0.48 -0.98-0.88 -2.12 2.84 -0.23 2.74 0 8.46 -1.14 1.6 -5.26 3.89 -2.29 5.94 0.46 0.23 2.51 2.06 0.69 3.2 -1.83 3.2 0 3.89 0.46 6.63 2.97 2.97 3.43 0 1.83 3.2 3.43 0.46 3.89 5.72 7.09 4.12 2.06 2.74 0.91 7.43 0.69 3.32 2.29 1.6 0.23 1.37 -2.06 3.43 0.23 3.2 2.51 3.89 2.51 1.14 2.97 0.46 1.34 1.38 9.17 0 26.07-1.49 10.06-1.37zM555.79 249.53l-2.52-3.09 -1.14-2.29 -7.77 0.69 -9.83 0.46 -25.38 0.91 -13.49 0.23 -7.89 0.11 -2.29 0.11 1.26 2.51 -0.23 2.29 2.51 3.89 3.09 4.12 3.09 2.74 2.29 0.23 1.37 0.91 0 2.97 -1.83 1.6 -0.46 2.29 2.06 3.43 2.51 2.97 2.51 1.83 1.37 11.66 -0.69 35.32 0.23 4.69 0.46 5.38 23.43-0.12 23.21-0.69 20.8-0.8 11.65-0.23 2.17 3.43 -0.68 3.31 -3.09 2.4 -0.57 1.84 5.38 0.46 3.89-0.69 1.72-5.49 0.65-5.86 2.32-2.02 1.71-1.49 2.06-1.03 0.12-2.86 0.57-1.72 -1.03-1.75 -2.75 0.14 -2.17-2.62 -1.37-4.23 0.8-2.52 -1.94-3.43 -1.83-4.58 -4.8-0.8 -6.97-5.6 -1.72-4.11 0.8-3.2 2.06-6.06 0.46-2.86 -1.95-1.03 -6.86-0.8 -1.03-1.71 -0.11-4.23 -5.49-3.43 -6.98-7.77 -2.29-7.32 -0.23-4.23 0.8-2.29zM590.95 344.95l-3.85 0.94 -6.17-0.46 0.69-2.97 3.2-2.74 0.46-2.29 -1.83-2.97 -10.97 0.46 -20.8 0.91 -23.32 0.69 -23.32 0.46 1.6 6.86 0 8.23 1.37 10.97 0.23 37.84 2.29 1.94 2.97-1.37 2.74 1.14 0.43 10.32 22.89-0.14 18.86-0.8 10.12-0.2 1.15-2.09 -0.29-3.55 -1.83-2.97 1.6-1.49 -1.6-2.51 0.68-2.51 1.37-5.61 2.52-2.06 -0.69-2.28 3.66-5.37 2.74-1.37 -0.11-1.49 -0.35-1.83 2.86-5.6 2.4-1.26 0.38-3.43 1.77-1.24 0.86-4.23 -1.34-4.01 4.04-2.38 0.55-2.02 1.24-4.27 0.8-3.26zM375.34 322.57l-10.69-0.46 -6.43-0.49 0.26 0.2 -0.7 10.42 21.97 1.41 32.06 1.3 -2.33 24.42 -0.46 17.83 0.23 1.6 4.34 3.66 2.06 1.14 0.69-0.23 0.69-2.06 1.37 1.83 2.06 0 0-1.37 2.74 1.37 -0.46 3.89 4.12 0.23 2.51 1.14 4.12 0.69 2.51 1.83 2.29-2.06 3.43 0.69 2.51 3.43 0.91 0 0 2.29 2.29 0.69 2.29-2.29 1.83 0.69 2.51 0 0.91 2.51 4.8 1.83 1.37-0.69 1.83-4.12 1.14 0 1.14 2.06 4.12 0.69 3.66 1.37 2.97 0.91 1.83-0.91 0.69-2.51 4.34 0 2.06 0.91 2.74-2.06 1.14 0 0.69 1.6 4.12 0 1.6-2.06 1.83 0.46 2.06 2.51 3.2 1.83 3.2 0.91 1.94 1.12 -0.39-37.22 -1.37-10.97 -0.16-8.87 -1.44-6.54 -0.78-7.18 -0.07-3.82 -12.14 0.32 -46.41-0.46 -45.04-2.06 -24.29-1.37zM503.38 325.13l-12.62 0.2 -46.09-0.46 -44.56-2.06 -24.63-1.26 4.14-64.72 21.83 0.8 40.47 1.37 44.12 0.46 5.1 0 3.25 3.22 2.77 0.23 0.89 1.07 0 2.01 -1.83 1.6 -0.46 2.61 2.22 3.59 2.51 3.13 2.51 1.99 1.05 11.18 -0.69 35.02zM602.2 472.99l-1.03-2.62 -1.14-3.09 -3.32-3.54 0.92-6.75 -0.12-1.14 -1.26 0.34 -8.23 0.91 -25.03 0.46 -0.68-2.39 0.91-8.46 3.32-5.95 5.03-8.69 -0.57-2.4 1.26-0.68 0.46-1.95 -2.29-2.06 -0.11-1.94 -1.83-4.35 -0.46-5.94 -9.72 0.11 -19.2 0.91 -22.2 0.03 0.03 9.57 0.69 9.37 0.69 3.89 2.51 4.12 0.91 5.03 4.34 5.49 0.23 3.2 0.69 0.69 -0.69 8.46 -2.97 5.03 1.6 2.06 -0.69 2.51 -0.69 7.32 -1.37 3.2 0.12 3.62 4.69-1.52 8.08-0.32 10.35 3.56 6.47 1.13 3.72-1.45 3.23 1.13 3.23 0.97 0.81-2.1 -3.23-1.13 -2.59 0.48 -2.75-1.62c0 0 0.16-1.29 0.81-1.45 0.65-0.16 3.07-0.97 3.07-0.97l1.78 1.45 1.78-0.97 3.23 0.65 1.45 2.42 0.32 2.26 4.53 0.32 1.78 1.78 -0.81 1.62 -1.29 0.81 1.62 1.62 8.41 3.56 3.56-1.29 0.97-2.42 2.59-0.65 1.78-1.45 1.29 0.97 0.81 2.91 -2.26 0.81 0.65 0.65 3.39-1.29 2.26-3.39 0.81-0.48 -2.1-0.32 0.81-1.62 -0.16-1.45 2.1-0.48 1.13-1.29 0.65 0.81c0 0-0.16 3.07 0.65 3.07 0.81 0 4.2 0.65 4.2 0.65l4.04 1.94 0.97 1.45 2.91 0 1.13 0.97 2.26-3.07 0-1.45 -1.29 0 -3.39-2.75 -5.82-0.81 -3.23-2.26 1.13-2.75 2.26 0.32 0.16-0.65 -1.78-0.97 0-0.48 3.23 0 1.78-3.07 -1.29-1.94 -0.32-2.75 -1.45 0.16 -1.94 2.1 -0.65 2.59 -3.07-0.65 -0.97-1.78 1.78-1.94 2.02-1.78 -0.36-0.73zM828.91 269.25l-0.14-1.95 6.45-2.55 -0.77 3.22 -2.92 3.78 -0.42 4.59 0.46 3.39 -1.83 4.98 -2.16 1.92 -1.47-4.64 0.45-5.45 1.59-4.18 0.77-3.1zm2.28 28.3l-58.17 12.58 -37.43 5.28 -6.68-0.38 -2.59 1.93 -7.34 0.22 -8.38 0.98 -8.93 0.95 8.48-4.95 -0.01-2.07 1.52-2.15 10.55-11.5 3.95 4.48 3.78 0.96 2.54-1.14 2.24-1.31 2.54 1.34 3.91-1.43 1.88-4.56 2.6 0.54 2.86-2.13 1.8 0.49 2.83-3.68 0.35-2.08 -0.96-1.28 1-1.87 5.27-12.28 0.62-5.74 1.23-0.52 2.18 2.44 3.94-0.3 1.93-7.57 2.79-0.56 1.05-2.74 2.58-2.35 1.27-2.34 1.5-3.35 0.08-5.07 9.82 3.82c0.68 0.34 0.66-4.78 0.66-4.78l4.05 1.38 -0.46 2.63 8.16 2.94 1.29 1.79 -0.87 3.68 -1.26 1.33 -0.51 1.75 0.49 2.4 1.96 1.28 3.92 1.45 2.95 0.97 4.86 0.94 2.15 2.09 3.19 0.4 0.87 1.2 -0.44 4.69 1.37 1.1 -0.48 1.93 1.23 0.79 -0.22 1.38 -2.69-0.09 0.09 1.62 2.28 1.54 0.12 1.41 1.77 1.79 0.49 2.52 -2.55 1.38 1.57 1.49 5.8-1.69 3.61 6.01zM801.76 253.84l-1.08-1.64 -1.01-0.84 1.1-1.62 2.23 1.51 -1.24 2.58z"/></g></svg>
